<?xml version="1.0" encoding="UTF-8"?>
<!--Generator: Apple Native CoreSVG 232.5-->
<!DOCTYPE svg
PUBLIC "-//W3C//DTD SVG 1.1//EN"
       "http://www.w3.org/Graphics/SVG/1.1/DTD/svg11.dtd">
<svg version="1.1" xmlns="http://www.w3.org/2000/svg" xmlns:xlink="http://www.w3.org/1999/xlink" width="40.625" height="40.3076">
 <g>
  <rect height="40.3076" opacity="0" width="40.625" x="0" y="0"/>
  <path d="M0 20.1416C0 21.3379 1.00098 22.3145 2.17285 22.3145L17.9688 22.3145L17.9688 38.1104C17.9688 39.2822 18.9453 40.2832 20.1416 40.2832C21.3379 40.2832 22.3389 39.2822 22.3389 38.1104L22.3389 22.3145L38.1104 22.3145C39.2822 22.3145 40.2832 21.3379 40.2832 20.1416C40.2832 18.9453 39.2822 17.9443 38.1104 17.9443L22.3389 17.9443L22.3389 2.17285C22.3389 1.00098 21.3379 0 20.1416 0C18.9453 0 17.9688 1.00098 17.9688 2.17285L17.9688 17.9443L2.17285 17.9443C1.00098 17.9443 0 18.9453 0 20.1416Z" fill="#007aff"/>
 </g>
</svg>
